<svg xmlns="http://www.w3.org/2000/svg" height="800" width="600" version="1.1" xmlns:xlink="http://www.w3.org/1999/xlink">

<defs>
<path id="01" d="M47.812,0v17.062h4.469v-17.062h-4.469zm-19.718,4.875l-3.782,2.375,9,14.438,3.782-2.344-9-14.469zm44.187,0.4375l-8.25,14.906,3.938,2.187,8.219-14.906-3.907-2.1875zm-63.625,16.25l-2.1874,3.938,14.843,8.25,2.188-3.906-14.844-8.282zm41.406,0.657c-15.25,0-27.624,12.417-27.624,27.719,0,15.3,12.374,27.721,27.624,27.718,15.24,0,27.594-12.416,27.594-27.718s-12.356-27.719-27.594-27.719zm41.75,0.531l-14.718,8.531,2.218,3.907,14.719-8.532-2.219-3.906zm-91.812,23.688v4.468h17v-4.468h-17zm83,0.25v4.5h17v-4.5h-17zm-63.594,15.687l-14.406,9.031,2.3438,3.813,14.406-9.063-2.344-3.781zm60.5,0.969l-2.187,3.906,14.875,8.281,2.187-3.937-14.875-8.25zm-11.312,13.625l-3.875,2.219,8.5,14.781,3.875-2.25-8.5-14.75zm-37.156,0.093l-8.25,14.938,3.906,2.156,8.25-14.937-3.906-2.157zm16.093,5.876v17.062h4.469v-17.062h-4.469z"/>
<path id="02" d="M43.031,0v15.344h4v-15.344h-4zm-17.75,4.375l-3.406,2.1562,8.125,13,3.406-2.125-8.125-13.031zm39.781,0.4062l-7.437,13.407,3.531,1.968,7.406-13.406-3.5-1.9688zm-57.281,14.625l-1.9687,3.532,13.376,7.437,1.968-3.531-13.375-7.438zm37.281,0.594c-13.724,0-24.874,11.166-24.874,24.938,0,13.77,11.15,24.94,24.874,24.937,13.716,0,24.813-11.165,24.813-24.937s-11.099-24.938-24.813-24.938zm37.563,0.5l-13.25,7.656,2.031,3.5,13.25-7.656-2.031-3.5zm-82.625,21.281v4.031h15.312v-4.031h-15.312zm74.688,0.25v4.031h15.312v-4.031h-15.312zm-57.219,14.094l-12.969,8.156,2.0938,3.407,13-8.126-2.125-3.437zm54.437,0.875l-1.968,3.531,13.406,7.438,1.937-3.531-13.375-7.438zm-10.187,12.25l-3.469,2,7.656,13.312,3.469-2-7.656-13.312zm-33.438,0.094l-7.406,13.437,3.5,1.969,7.437-13.438-3.531-1.968zm14.5,5.312v15.344h4.031v-15.344h-4.031zm37.719,2c-5.303,0-9.565,4.213-9.875,9.438-2.591,0.249-4.6,2.193-5.063,4.718-0.152-0.016-0.276-0.062-0.437-0.062-2.817,0-5.125,2.31-5.125,5.125,0,1.408,0.671,2.588,1.656,3.25,0.986,0.662,2.198,0.875,3.469,0.875h13.094,7.125,6.562c4.46,0,8.094-3.633,8.094-8.094s-3.633-8.094-8.094-8.094c-0.677,0-1.29,0.185-1.906,0.344-1.127-4.272-4.881-7.5-9.5-7.5zm0,1.906c4.035,0,7.328,2.983,7.938,6.844l0.187,1.156,1.094-0.437c0.693-0.263,1.427-0.406,2.187-0.406,3.432,0,6.188,2.756,6.188,6.187,0,3.432-2.756,6.188-6.188,6.188h-6.562-7.125-13.094c-1.031,0-1.884-0.212-2.406-0.563-0.522-0.35-0.813-0.762-0.813-1.656,0-1.785,1.432-3.219,3.219-3.219,0.296,0,0.576,0.057,0.906,0.156l1.25,0.376v-1.282c0-0.059-0.028-0.061-0.031-0.094,0-0.054-0.005-0.05,0-0.062-0.001-0.005,0.001-0.029,0-0.031,0.05-2.124,1.77-3.813,3.906-3.813-0.031,0,0.066,0.017,0.282,0.032l1.062,0.062-0.031-1.062c-0.012-0.261-0.063-0.343-0.063-0.282,0-4.471,3.62-8.094,8.094-8.094z"/>
<path id="03" d="M33.469,15v11.938h3.125v-11.938h-3.125zm-13.813,3.406l-2.656,1.656,6.312,10.126,2.657-1.657-6.313-10.125zm30.938,0.313l-5.782,10.437,2.75,1.532,5.782-10.438-2.75-1.531zm-44.532,11.375l-1.5313,2.75,10.407,5.781,1.5-2.75-10.376-5.781zm28.968,0.468c-10.675,0-19.312,8.695-19.312,19.407,0,9.054,6.173,16.619,14.531,18.75-3.104,1.593-5.25,4.819-5.25,8.531,0,2.64,1.214,4.853,3.062,6.094,1.508,1.012,3.31,1.457,5.219,1.594v0.062h1.313,1.812,22.75,13.375,12.281c8.363,0,15.188-6.823,15.188-15.188,0-8.364-6.824-15.156-15.188-15.156-1.204,0-2.335,0.198-3.437,0.469-2.148-7.959-9.313-13.875-17.937-13.875-3.692,0-7.108,1.081-10,2.938-2.449-7.888-9.748-13.626-18.407-13.626zm29.219,0.376l-10.281,5.968,1.562,2.719,10.313-5.969-1.594-2.718zm-0.812,13.874c7.565,0,13.762,5.572,14.906,12.813l0.312,2.156,2.063-0.781c1.3-0.493,2.668-0.781,4.093-0.781,6.436,0,11.626,5.159,11.626,11.593,0,6.435-5.191,11.626-11.626,11.626h-12.281-13.375-24.562c-1.933,0-3.553-0.406-4.532-1.063-0.978-0.657-1.5-1.449-1.5-3.125,0-3.347,2.681-6.031,6.032-6.031,0.554,0,1.13,0.126,1.75,0.312l2.281,0.688v-2.407-0.187c0-4.067,3.246-7.313,7.313-7.313-0.059,0,0.097,0.036,0.5,0.063l2,0.125-0.094-2c-0.022-0.488-0.063-0.646-0.063-0.531,0-8.384,6.767-15.157,15.157-15.157zm-63.438,2.688v3.125h11.906v-3.125h-11.906zm13.562,11.156l-10.062,6.344,1.625,2.656,10.094-6.344-1.657-2.656zm8.438,10.282l-5.75,10.468,2.719,1.5,5.781-10.437-2.75-1.531z"/>
<path id="04" d="m81.245,40.626c-2.34,0-4.558,0.484-6.615,1.264-1.788-11.321-11.508-20.013-23.326-20.013-13.095,0-23.702,10.608-23.702,23.696,0,0.296,0.081,0.571,0.094,0.867-0.296-0.02-0.578-0.087-0.874-0.087-7.045,0-12.759,5.714-12.759,12.759,0,0.087,0.027,0.168,0.027,0.255-1.008-0.302-2.05-0.518-3.153-0.518-6.043,0-10.937,4.901-10.937,10.938,0,6.043,4.894,8.335,10.937,8.335h70.308c10.358,0,18.755-8.389,18.755-18.748s-8.396-18.748-18.755-18.748z"/>
<path id="09" d="M51.312,6.0312c-13.094,0-23.718,10.6-23.718,23.688,0,0.296,0.08,0.579,0.094,0.875-0.296-0.02-0.58-0.094-0.876-0.094-7.044,0-12.75,5.705-12.75,12.75,0,0.087,0.032,0.194,0.032,0.281-1.008-0.302-2.054-0.531-3.156-0.531-6.0435,0-10.938,4.9-10.938,10.938,0,6.042,4.8945,8.343,10.938,8.343h34.374,18.719,17.219c10.358,0,18.75-8.391,18.75-18.75s-8.391-18.75-18.75-18.75c-2.34,0-4.568,0.47-6.625,1.25-1.788-11.321-11.495-20-23.313-20zm-27.843,62.438l-9.031,24.781,1.937,0.719,9.313-25.5h-2.219zm10.343,0l-9.031,24.781,1.938,0.719,9.281-25.5h-2.188zm10.313,0l-9.031,24.781,1.937,0.719,9.281-25.5h-2.187zm10.344,0l-9.031,24.781,1.937,0.719,9.281-25.5h-2.187zm10.312,0l-9.031,24.781,1.938,0.719,9.281-25.5h-2.188zm10.313,0l-9,24.781,1.937,0.719,9.281-25.5h-2.218z"/>
<path id="10" d="M51.188,6.8125c-12.627,0-22.762,10.028-23.5,22.468-6.17,0.593-10.961,5.238-12.063,11.25-0.362-0.038-0.648-0.156-1.031-0.156-6.7074,0-12.219,5.485-12.219,12.187,0,3.353,1.5923,6.174,3.9375,7.75,2.3476,1.577,5.2555,2.094,8.2815,2.094h31.156,16.969,15.625c10.619,0,19.281-8.66,19.281-19.281s-8.66-19.281-19.281-19.281c-1.612,0-3.065,0.434-4.532,0.812-2.683-10.171-11.627-17.844-22.624-17.844zm0,4.5315c9.607,0,17.453,7.119,18.906,16.312l0.437,2.75,2.625-1.062c1.65-0.626,3.378-0.938,5.188-0.938,8.171,0,14.75,6.55,14.75,14.719,0,8.171-6.579,14.719-14.75,14.719h-15.625-16.969-31.156c-2.455,0-4.507-0.508-5.7502-1.344-1.2429-0.833-1.9376-1.809-1.9376-3.938,0-4.249,3.4328-7.656,7.6878-7.656,0.705,0,1.37,0.14,2.156,0.375l2.969,0.907v-3.063c0-0.14-0.056-0.14-0.063-0.219,0-0.128-0.012-0.127,0-0.156-0.002-0.012,0.002-0.058,0-0.062,0.119-5.058,4.196-9.094,9.282-9.094-0.074,0,0.173,0.058,0.687,0.094l2.531,0.124-0.094-2.531c-0.028-0.621-0.156-0.801-0.156-0.656,0-10.645,8.629-19.281,19.282-19.281zm-27.719,57.125l-9.031,24.781,1.937,0.719,9.313-25.5h-2.219zm17.219,0l-9.032,24.781,1.938,0.719,9.281-25.5h-2.187zm17.218,0l-9.031,24.781,1.937,0.719,9.282-25.5h-2.188zm17.188,0l-9,24.781,1.937,0.719,9.281-25.5h-2.218z"/>
<path id="11" d="M51.312,3.5625c-13.094,0-23.718,10.63-23.718,23.718,0,0.296,0.08,0.548,0.094,0.844-0.296-0.02-0.58-0.063-0.876-0.063-7.044,0-12.75,5.706-12.75,12.75,0,0.088,0.032,0.164,0.032,0.25-1.008-0.302-2.054-0.5-3.156-0.5-6.0435,0-10.938,4.901-10.938,10.938,0,6.043,4.8945,8.312,10.938,8.312h70.312c10.358,0,18.75-8.39,18.75-18.75,0-10.358-8.391-18.75-18.75-18.75-2.34,0-4.568,0.502-6.625,1.282-1.788-11.321-11.495-20.032-23.313-20.032zm-4.593,58.656l-11.969,20.531h8.562l-6.843,13.688,20.531-20.532h-10.281l8.562-13.687h-8.562zm-23.25,3.781l-9.031,24.812,1.937,0.719,9.313-25.531h-2.219zm10.343,0l-9.031,24.812,1.938,0.719,9.281-25.531h-2.188zm30.969,0l-9.031,24.812,1.938,0.719,9.281-25.531h-2.188zm10.313,0l-9,24.812,1.937,0.719,9.281-25.531h-2.218z"/>
<path id="13" d="m42.732,50.287,3.955,5.841,7.365,0,3.398-5.841-3.58-6.22-7.379,0zm3.033,46.974,0-13.207-7.379,4.15-3.759-2.152,0-4.653,10.943-6.22,0-8.68-7.939,5.102,0-9.196-7.589,4.374,0,12.468-4.151,2.572-3.508-2.321,0-8.356-11.518,6.498-4.919-2.07,0-5.27,12.089-6.609-7.561-3.801,0-4.822,4.291-2.349,10.845,6.386,7.533-4.346-0.182-0.139-7.701-4.417,7.477-4.64-7.505-4.346-10.844,6.372-4.068-2.026,0-4.808,7.339-4.123-11.713-6.36,0-5.269,4.5-2.319,11.544,6.666,0-8.497,3.48-2.348,4.264,2.46-0.028,12.718,7.756,4.43-0.027-8.986,8.134,4.375,0-8.68-10.943-6.233,0-4.612,3.759-2.18,7.379,4.151,0-13.18,4.222-2.768,4.261,2.768,0,13.18,7.646-4.235,3.845,2.544,0,4.151-11.322,6.414,0,8.68,7.744-4.724,0,9.448,7.979-4.348,0-13.598,3.844-1.789,4.038,1.789,0,8.694,11.879-6.416,4.153,2.53,0,4.919-11.601,6.597,7.254,4.066,0,4.697-3.76,2.083-11.138-6.583-7.702,4.892,7.449,4.642-7.673,4.416,7.926,4.15,11.138-6.221,3.578,2.53,0,4.487-6.988,3.927,11.126,6.61,0,5.188-4.71,2.152-10.931-6.221,0,8.232-3.927,2.194-3.843-2.194,0-12.496-8.092-4.611,0,8.68-7.744-4.725,0,8.68,10.944,6.22,0,4.92-3.776,1.886-7.337-4.15,0,13.207-4.26,2.738z"/>
<path id="50" d="M51.312,21.875c-5.183,0-9.974,1.68-13.874,4.5h27.687c-3.879-2.82-8.642-4.5-13.813-4.5zm-18.312,8.625c-1.135,1.375-2.102,2.891-2.906,4.5h42.312c-0.806-1.614-1.771-3.121-2.906-4.5h-36.5zm-4.5,8.625c-0.41,1.451-0.686,2.95-0.812,4.5h63.718c-2.932-1.897-6.403-3-10.156-3-2.34,0-4.568,0.47-6.625,1.25-0.15-0.948-0.368-1.843-0.625-2.75h-45.5zm-7.438,8.625c-2.041,1.037-3.774,2.58-5,4.5h82.532c-0.668-1.626-1.551-3.141-2.625-4.5h-74.907zm-6.718,8.625c-0.192,0.879-0.282,1.814-0.282,2.75,0,0.087,0.032,0.163,0.032,0.25-1.008-0.302-2.054-0.531-3.156-0.531-2.3633,0-4.5566,0.758-6.3442,2.031h95.344c0.039-0.499,0.062-0.991,0.062-1.5,0-1.025-0.092-2.02-0.25-3h-85.406zm-13.25,8.625c-0.66557,1.366-1.0531,2.889-1.0938,4.5h97.031c0.893-1.385,1.589-2.896,2.094-4.5h-98.031zm-0.25005,8.625c1.6598,3.194,5.5614,4.5,10.094,4.5h70.312c4.652,0,8.91-1.698,12.188-4.5h-92.594z"/>
</defs>

<g transform="scale(3.25) translate(5.055 20.166)">
<use xlink:href="#ICON_W"/>
</g>

<g transform="scale(1.2) translate(34.167 399.725)">
<use xlink:href="#ICON_1"/>
</g>
<g transform="scale(1.2) translate(200 399.725)">
<use xlink:href="#ICON_2"/>
</g>
<g transform="scale(1.2) translate(365.833 399.725)">
<use xlink:href="#ICON_3"/>
</g>

<g font-family="DejaVu Sans">
<text style="text-anchor:end;" font-size="35px" y="50" x="596">Hőmérséklet:</text>
<text style="text-anchor:end;" font-size="100px" y="149.20592" x="506.72095">TEMP_W</text>
<text style="text-anchor:middle;" font-size="64px" y="122.48717" x="548.30981">°C</text>
<text style="text-anchor:middle;" font-size="32px" y="220" x="396">Szél:</text>
<text style="text-anchor:end;" font-size="46px" y="225" x="480">WIND_W</text>
<text style="text-anchor:middle;" font-size="28px" y="220" x="540">Km/h</text>

<text style="text-anchor:middle;" font-size="32px" y="280" x="401">Pára:</text>
<text style="text-anchor:end;" font-size="46px" y="285" x="510">HUMI_W</text>
<text style="text-anchor:middle;" font-size="28px" y="280" x="540">%</text>

<text style="text-anchor:middle;" font-size="32px" y="340" x="430">Nyomás:</text>
<text style="text-anchor:end;" font-size="46px" y="395" x="500">PRES_W</text>
<text style="text-anchor:middle;" font-size="28px" y="390" x="540">hpa</text>

<text style="text-anchor:middle;" font-size="28px" y="465.16922" x="102.92969">DAY_1:</text>
<text style="text-anchor:middle;" font-size="20px" y="635.68347" x="74.958336">Max:</text>
<text style="text-anchor:end;" font-size="48px" y="676.3255" x="116.05887">Max_1</text>
<text style="text-anchor:middle;" font-size="37px" y="670.86145" x="134.01662">°C</text>
<text style="text-anchor:middle;" font-size="20px" y="724.48578" x="71.906197">Min:</text>
<text style="text-anchor:end;" font-size="48px" y="763.51617" x="116.00232">Min_1</text>
<text style="text-anchor:middle;" font-size="37px" y="758.05206" x="134.01663">°C</text>

<text style="text-anchor:middle;" font-size="28px" y="466.15359" x="300.3125">DAY_2:</text>
<text style="text-anchor:middle;" font-size="20px" y="635.68347" x="273.95834">Max:</text>
<text style="text-anchor:end;" font-size="48px" y="676.3255" x="314.15454">Max_2</text>
<text style="text-anchor:middle;" font-size="37px" y="670.86145" x="333.01663">°C</text>
<text style="text-anchor:middle;" font-size="20px" y="724.48578" x="270.90619">Min:</text>
<text style="text-anchor:end;" font-size="48px" y="763.51617" x="314.08383">Min_2</text>
<text style="text-anchor:middle;" font-size="37px" y="758.05206" x="333.0166">°C</text>

<text style="text-anchor:middle;" font-size="28px" y="466.15359" x="499.82813">DAY_3:</text>
<text style="text-anchor:middle;" font-size="20px" y="635.68347" x="472.95834">Max:</text>
<text style="text-anchor:end;" font-size="48px" y="676.3255" x="513.30994">Max_3</text>
<text style="text-anchor:middle;" font-size="37px" y="670.86145" x="532.0166">°C</text>
<text style="text-anchor:middle;" font-size="20px" y="724.48578" x="469.90619">Min:</text>
<text style="text-anchor:end;" font-size="48px" y="763.51617" x="513.73383">Min_3</text>
<text style="text-anchor:middle;" font-size="37px" y="758.05206" x="532.0166">°C</text>

<text style="text-anchor:middle;" font-size="12px" y="790" x="300">DATE_VALPLACE</text>
</g>

<path d="m199,447.35,0,321.5,3,0,0-321.5-3,0z"/>
<path d="m398,447.35,0,321.5,3,0,0-321.5-3,0z"/>

</svg>
